<svg width="900" height="700" viewBox="0 0 900 700" fill="none" xmlns="http://www.w3.org/2000/svg">
  <rect width="900" height="700" fill="#FFFFFF"/>
  <rect x="80" y="120" width="380" height="480" rx="24" fill="#FF6600"/>
  <rect x="130" y="170" width="380" height="480" rx="24" fill="#FFFFFF" stroke="#FF6600" stroke-width="8"/>
  <rect x="170" y="220" width="300" height="32" rx="8" fill="#FF6600"/>
  <rect x="170" y="274" width="170" height="16" rx="8" fill="#FF6600"/>
  <rect x="170" y="304" width="250" height="16" rx="8" fill="#FF6600"/>
  <rect x="170" y="352" width="120" height="18" rx="9" fill="#FF6600"/>
  <rect x="170" y="387" width="260" height="12" rx="6" fill="#FF6600"/>
  <rect x="170" y="411" width="220" height="12" rx="6" fill="#FF6600"/>
  <rect x="170" y="435" width="280" height="12" rx="6" fill="#FF6600"/>
  <rect x="170" y="482" width="130" height="18" rx="9" fill="#FF6600"/>
  <rect x="170" y="516" width="260" height="12" rx="6" fill="#FF6600"/>
  <rect x="170" y="540" width="230" height="12" rx="6" fill="#FF6600"/>
  <rect x="470" y="280" width="280" height="210" rx="22" fill="#FFFFFF" stroke="#FF6600" stroke-width="8"/>
  <rect x="505" y="320" width="210" height="18" rx="9" fill="#FF6600"/>
  <rect x="505" y="356" width="160" height="12" rx="6" fill="#FF6600"/>
  <rect x="505" y="382" width="185" height="12" rx="6" fill="#FF6600"/>
  <rect x="505" y="408" width="140" height="12" rx="6" fill="#FF6600"/>
  <circle cx="570" cy="170" r="56" fill="#FFFFFF" stroke="#FF6600" stroke-width="8"/>
  <path d="M570 145C548 145 532 161 532 183V197H608V183C608 161 592 145 570 145Z" fill="#FF6600"/>
  <circle cx="570" cy="132" r="26" fill="#FF6600"/>
</svg>
